<?xml version="1.0"?>
<!DOCTYPE svg PUBLIC "-//W3C//DTD SVG 1.1/EN" "http://www.w3.org/Graphics/SVG/1.1/DTD/svg11.dtd">

<svg version="1.1" xmlns="http://www.w3.org/2000/svg"
    xmlns:xlink="http://www.w3.org/1999/xlink"
    width="1350px" height="600px"
    preserveAspectRatio="XMidYMid">

    <rect id="ceu" x="0" y="0" width="1350" height="250" fill="#9adfe6"/>
    <rect id="terra" x="0" y="250" width="1350" height="600" fill="rgb(122, 162, 75)"/>
    <rect id="estrada" x="0" y="368" width="1350" height="600" fill="rgb(50, 50, 50)"/>
    <rect id="passeio" x="0" y="340" width="1350" height="70" fill="rgb(200, 200, 200)"/>
    <rect id="passeio2" x="0" y="570" width="1350" height="80" fill="rgb(200, 200, 200)"/>
    <rect id="guia" x="0" y="415" width="1350" height="3" fill="rgb(255, 255, 255)"/>
    <rect id="guia2" x="0" y="560" width="1350" height="3" fill="rgb(255, 255, 255)"/>
    <rect id="eixo_da_via" x="0" y="485" width="1350" height="8" fill="rgb(255, 255, 255)"/>
    
    <g id="passadeira">
        <rect  x="700" y="420" width="70" height="10" fill="white"/>
        <rect  x="700" y="440" width="70" height="10" fill="white"/>
        <rect  x="700" y="460" width="70" height="10" fill="white"/>
        <rect  x="700" y="480" width="70" height="10" fill="white"/>
        <rect  x="700" y="500" width="70" height="10" fill="white"/>
        <rect  x="700" y="520" width="70" height="10" fill="white"/>
        <rect  x="700" y="540" width="70" height="10" fill="white"/>
        <rect  x="700" y="560" width="70" height="10" fill="white"/>

        <rect  x="680" y="497" width="5" height="60" fill="white"/>
        <rect  x="783" y="422" width="5" height="60" fill="white"/>
    </g>

    <circle id="sol" cx="800" cy="100" r="50" fill="#FFFFAA"/>

    <g id="nuvem">
        <path d="M 100,100 C 150,0 200,100 300,100" fill="white"/>
        <path d="M 300,100 C 350,50 400,50 450,80" fill="white"/>
        <ellipse cx="450" cy="100" rx="50" ry="20" fill="white"/>
        <ellipse cx="500" cy="100" rx="50" ry="20" fill="white"/>
        <ellipse cx="470" cy="80" rx="25" ry="20" fill="white"/>
    </g>

    <defs id="objetos_do_cenario_parado">
        <g id="casa">
            <rect x="600" y="130" width="170" height="200" stroke-width="2" stroke="#999999"/>
            <rect id="porta" x="660" y="260" width="60" height="60" stroke-width="5" stroke="rgb(100, 100, 100)" fill="rgb(220, 220, 220"/>
            <rect id="divisao_porta" x="688" y="260" width="5" height="60" fill="rgb(100, 100, 100)"/>
            <rect id="puxador_porta" x="675" y="290" width="10" height="2" fill="rgb(100, 100, 100)"/>
            <rect id="puxador_porta1" x="695" y="290" width="10" height="2" fill="rgb(100, 100, 100)"/>
            <rect id="escada_degrau2" x="645" y="318" width="90" height="10" fill="rgb(40, 40, 40)"/>
            <rect id="escada_degrau1" x="635" y="328" width="110" height="10" fill="rgb(40, 40, 40)"/>
        </g>

        <g id="janela">
            <rect x="620" y="140" width="15" height="25" stroke-width="1" stroke="#999999"/>
            <rect x="620" y="180" width="15" height="25" stroke-width="1" stroke="#999999"/>
            <rect x="620" y="220" width="15" height="25" stroke-width="1" stroke="#999999"/>
        </g>

        <g id="arvore">
            <ellipse cx="110" cy="360" rx="40" ry="10" fill="#888888"/>

            <rect id="tronco" x="90" y="270" width="38" height="90"/>
            <circle id="folha1" cx="80" cy="230" r="50" fill="rgb(40, 198, 54)"/>
            <circle id="folha2" cx="140" cy="230" r="50" fill="rgb(40, 198, 54)"/>
            <circle id="folha3" cx="115" cy="200" r="50" fill="rgb(40, 198, 54)"/>
        </g>   

        <g id="banco">
            <ellipse id="base_banco1" cx="153" cy="362" rx="10" ry="5" fill="#888"/>
            <ellipse id="base_banco2" cx="215" cy="362" rx="10" ry="5" fill="#888"/>

            <rect x="150" y="312" width="8" height="50"/>
            <rect x="210" y="312" width="8" height="50"/>
            <rect x="139" y="335" width="90" height="10"/>
            <rect x="150" y="325" width="60" height="5"/>
            <rect x="150" y="315" width="60" height="5"/>
        </g>

        <g id="pessoa_sentada">
            <rect id="camisa" x="180" y="300" width="20" height="30"/>
            <rect id="calça" x="177" y="330" width="25" height="11" fill="black"/>
            <rect id="pe" x="177" y="340" width="7" height="25" fill="rgb(255, 229, 172)"/>
            <rect id="pe1" x="195" y="340" width="7" height="25" fill="rgb(255, 229, 172)"/>
            <rect id="sapato" x="176" y="360" width="9" height="5" fill="black"/>
            <rect id="sapato1" x="194" y="360" width="9" height="5" fill="black"/>
            <rect id="pescoço" x="188" y="293" width="5" height="8" fill="rgb(255, 229, 172)"/>
            
            <circle id="cabeça" cx="190" cy="287" r="10" fill="rgb(255, 229, 172)"/>
            <path id="boca" d="M -40,-40 C -80,-80 -20,10 50,-40" stroke-width="15" stroke="black" transform="translate(190, 296) scale(0.1, 0.1)"/>
            <line id="nariz" y1="286" y2="289" stroke-width="2" stroke="black" transform="translate(190, 0)"/>
            <circle id="olho" r="20" fill="black" transform="translate(186, 284) scale(0.1, 0.1)"/>
            <circle id="olho2" r="20" fill="black" transform="translate(194, 284) scale(0.1, 0.1)"/>
        </g>

        <g id="cao_parado" fill="#1f1607" transform="translate(280, 370) scale(-0.005, -0.005)">
            <path id="cabeça_cao" d="M10478 11739 c-10 -5 -541 -578 -1180 -1272 -640 -694 -1232 -1336
                -1315 -1427 -84 -91 -153 -167 -153 -171 0 -4 663 -622 1934 -1801 105 -98
                194 -177 197 -175 3 1 153 154 333 340 225 231 332 335 340 329 262 -209 622
                -480 656 -496 34 -15 66 -20 130 -21 77 0 92 3 152 33 64 32 94 61 649 664
                l581 631 -1118 1118 -1117 1117 7 183 c3 101 7 350 8 552 l3 369 -24 19 c-25
                21 -56 24 -83 8z"/>

                <path id="corpo_cao" d="M330 8561 c-210 -68 -377 -326 -315 -487 15 -40 85 -107 621 -590
                523 -472 604 -549 608 -577 3 -17 10 -261 16 -542 15 -722 38 -1678 44 -1822
                l5 -121 -197 -254 -196 -253 23 -685 c12 -377 26 -802 32 -945 12 -357 47
                -1384 59 -1755 5 -168 12 -356 16 -418 l6 -112 705 0 706 0 -7 313 c-6 283
                -11 510 -32 1418 l-7 296 834 891 834 892 1957 0 1958 0 0 -1861 0 -1861 568
                6 c312 4 672 9 801 12 l234 6 -7 402 c-3 220 -11 651 -16 956 -10 582 -23
                1322 -40 2320 -6 327 -15 838 -20 1135 -5 297 -13 731 -16 964 l-7 424 -1103
                1018 -1102 1018 -93 -122 c-223 -293 -393 -474 -513 -546 -77 -46 -173 -79
                -248 -86 -56 -5 -994 -35 -1998 -65 -190 -6 -491 -15 -670 -20 -179 -6 -640
                -19 -1025 -30 -385 -10 -769 -22 -854 -25 l-154 -6 -296 293 c-454 450 -735
                704 -868 788 -51 32 -64 35 -137 37 -45 1 -92 -1 -106 -6z"/>        
        </g>
        
    </defs>

    <g id="casa1">
        <use xlink:href="#casa" fill='rgb(180, 12, 120)'/>
        <use xlink:href="#janela" fill="white"/>
        <use xlink:href="#janela" x="40" fill="white"/>
        <use xlink:href="#janela" fill="white" x="80"/>
        <use xlink:href="#janela" fill="white" x="120"/>
    </g>

    <g id="casa2">
        <use xlink:href="#casa" fill='rgb(108, 50, 255)' x="171"/>
        <use xlink:href="#janela" fill="orange" x="180"/>       
        <use xlink:href="#janela" fill="orange" x="210"/>
        <use xlink:href="#janela" fill="orange" x="240"/>
        <use xlink:href="#janela" fill="white" x="270"/>        
    </g>

    <g id="chamada_arvore">
        <use xlink:href="#arvore" fill='rgb(110, 50, 20)'/>
        <use xlink:href="#arvore" fill='rgb(110, 50, 20)' transform="translate(1100, -80) scale(1.2, 1.2)"/>  
    </g>

    <g id="chamada_banco">
        <use xlink:href="#banco" fill='red' transform="translate(10, 0)"/>
        <use xlink:href="#banco" fill='blue' transform="translate(1000, 0)"/>
    </g>

    <g id="chamada_pessoa_sentada">
        <g>
            <use xlink:href="#pessoa_sentada" transform="translate(10, 0)" fill="black"/>

            <g id="braços_pessoa1">
                <line stroke="rgb(255, 229, 172)" stroke-width="4" x1="191" y1="301" x2="185" y2="315"/>
                <line stroke="rgb(255, 229, 172)" stroke-width="4" x1="185" y1="315" x2="195" y2="330"/>
                <line stroke="rgb(255, 229, 172)" stroke-width="4" x1="209" y1="301" x2="210" y2="315"/>
                <line stroke="rgb(255, 229, 172)" stroke-width="4" x1="209" y1="301" x2="210" y2="315"/>
                <line stroke="rgb(255, 229, 172)" stroke-width="4" x1="210" y1="315" x2="195" y2="307"/>
            </g>
        </g>

        <g>
            <use xlink:href="#pessoa_sentada" transform="translate(1000, 0)" fill="#d86007"/>

            <g id="braços_pessoa2" transform="translate(805, 0)">
                <line stroke="rgb(255, 229, 172)" stroke-width="4" x1="377" y1="303" x2="365" y2="308"/>
                <line stroke="rgb(255, 229, 172)" stroke-width="4" x1="365" y1="308" x2="350" y2="310"/>
                <line stroke="rgb(255, 229, 172)" stroke-width="4" x1="393" y1="301" x2="397" y2="315"/>
                <line stroke="rgb(255, 229, 172)" stroke-width="4" x1="397" y1="315" x2="385" y2="325"/>
            </g>
        </g>
    </g>

    <g id="chamada_cao_parado">
        <use xlink:href="#cao_parado"/>
        <line id="coleira" x1="230" y1="337" x2="242" y2="328" stroke="white" stroke-width="5"/>
    </g>

    <defs id="animacao">
        <g id="pessoa_desloca" transform="translate(1, 0)">
            <circle id="cabeça_pessoa_desloca" cx="90" cy="322" r="10" fill="rgb(255, 229, 172)"/>
            <ellipse id="corpo_pessoa_desloca" cx="85" cy="350" rx="10" ry="20"/>
            
            <g id="braço_pessoa_desloca">
                <line x1="85" y1="337" x2="80" y2="355" stroke="rgb(255, 229, 172)" stroke-width="5"/>
                <line x1="80" y1="355" x2="80" y2="353" stroke="rgb(255, 229, 172)" stroke-width="5"/>
                <line x1="80" y1="353" x2="90" y2="360" stroke="rgb(255, 229, 172)" stroke-width="5"/>

                <line id="bolso" x1="91" y1="356" x2="90" y2="360" stroke="black" stroke-width="1"/>
                <line id="bolso" x1="90" y1="360" x2="89" y2="364" stroke="black" stroke-width="1"/>
            </g>      
        

           <g id="pes">
                <line id="pe1" x1="85" y1="367" x2="95" y2="400" stroke="black" stroke-width="10">
                    <animate attributeName="x2" values="95; 80; 80; 95; 95" keyTimes="0; 0.25; 0.5; 0.75; 1" dur="1.5s" repeatCount="indefinite"/>
                </line>

                <line id="pe2" x1="85" y1="367" x2="80" y2="400" stroke="black" stroke-width="10">
                    <animate attributeName="x2" values="80; 95; 95; 80; 80" keyTimes="0; 0.25; 0.5; 0.75; 1" dur="1.5s" repeatCount="indefinite"/>
                </line>
            </g>
        </g>

        <g id="cao_andando">
            <path id="cabeça_cao" d="M10478 11739 c-10 -5 -541 -578 -1180 -1272 -640 -694 -1232 -1336
                -1315 -1427 -84 -91 -153 -167 -153 -171 0 -4 663 -622 1934 -1801 105 -98
                194 -177 197 -175 3 1 153 154 333 340 225 231 332 335 340 329 262 -209 622
                -480 656 -496 34 -15 66 -20 130 -21 77 0 92 3 152 33 64 32 94 61 649 664
                l581 631 -1118 1118 -1117 1117 7 183 c3 101 7 350 8 552 l3 369 -24 19 c-25
                21 -56 24 -83 8z" fill="#55350b" transform="translate(375, 380) scale(0.005, -0.005)"/>

            <rect id="corpo" x="380" y="340" width="40" height="20" fill="#55350b"/>
            <line id="pescoço" x1="410" y1="350" x2="420" y2="340" stroke="#55350b" stroke-width="12"/>

            <g id="pes_frontal_cao">
                <line id="pe_frente" x1="415" x2="415" y1="360" y2="380" stroke="#55350b" stroke-width="6">
                    <animate attributeName="x2" values="420; 410; 410; 420; 420" keyTimes="0; 0.25; 0.5; 0.75; 1" dur="1.5s" repeatCount="indefinite"/>
                </line>

                <line id="pe_tras" x1="380" x2="380" y1="360" y2="380" stroke="#55350b" stroke-width="6">
                    <animate attributeName="x2" values="390; 370; 370; 390; 390" keyTimes="0; 0.25; 0.5; 0.75; 1" dur="1.5s" repeatCount="indefinite"/>
                </line>

                <line id="coxa" x1="380" x2="390" y1="365" y2="355" stroke="#55350b" stroke-width="8"/>
            </g>

            <g id="pes_back_cao">
                <line id="pe_frente" x1="415" x2="415" y1="360" y2="380" stroke="#55350b" stroke-width="6">
                    <animate attributeName="x2" values="410; 420; 420; 410; 410" keyTimes="0; 0.25; 0.5; 0.75; 1" dur="1.5s" repeatCount="indefinite"/>
                </line>

                <line id="pe_tras" x1="380" x2="380" y1="360" y2="380" stroke="#55350b" stroke-width="6">
                    <animate attributeName="x2" values="370; 390; 390; 370; 370" keyTimes="0; 0.25; 0.5; 0.75; 1" dur="1.5s" repeatCount="indefinite"/>
                </line>
            </g>

            <line id="rabo" x1="381" y1="341" x2="375" y2="330" stroke="#55350b" stroke-width="4"/>
        </g>


        <g id="bike">

            <g id="pe_do_ciclista_lado_dentro">
                <line id="coxa" x1="155" y1="455" x2="190" y2="470" stroke="black" stroke-width="15">
                    <animate attributeName="x2" dur="2s" repeatCount="indefinite" values="190; 190; 190; 190; 190" keyTimes="0; 0.25; 0.5; 0.75; 1"/>
                    <animate attributeName="y2" dur="2s" repeatCount="indefinite" values="465; 465; 480; 480; 465" keyTimes="0; 0.25; 0.5; 0.75; 1"/>
                </line>

               <line id="perna" x1="190" y1="465" x2="160" y2="505" stroke="rgb(255, 229, 172)" stroke-width="12">
                    <animate attributeName="x1" dur="2s" repeatCount="indefinite" values="190; 190; 195; 195; 190" keyTimes="0; 0.25; 0.5; 0.75; 1"/>
                    <animate attributeName="y1" dur="2s" repeatCount="indefinite" values="465; 465; 480; 480; 465" keyTimes="0; 0.25; 0.5; 0.75; 1"/>

                    <animate attributeName="x2" dur="2s" repeatCount="indefinite" values="160 ; 190 ; 190 ; 155 ; 160" keyTimes="0; 0.25; 0.5; 0.75; 1"/>
                    <animate attributeName="y2" dur="2s" repeatCount="indefinite" values="505 ; 500 ; 540 ; 540 ; 505" keyTimes="0; 0.25; 0.5; 0.75; 1"/>
                </line>
                
                <ellipse id="sapato" cx="185" cy="545" rx="12" ry="5" fill="#ff0c00" transform="translate(8, 0)">
                    <animate attributeName="cx" dur="2s" repeatCount="indefinite" values="160 ; 190 ; 190 ; 155 ; 160" keyTimes="0; 0.25; 0.5; 0.75; 1"/>
                    <animate attributeName="cy" dur="2s" repeatCount="indefinite" values="505 ; 500 ; 540 ; 540 ; 505" keyTimes="0; 0.25; 0.5; 0.75; 1"/>
                </ellipse>
            </g>




            <line id="pata_pedal2" x1="170" y1="525" x2="160" y2="505" stroke="black" stroke-width="4">
                <animateTransform attributeName="transform" type="rotate" from="0 170 525" to="360 170 525" dur="2s" repeatCount="indefinite"/>
            </line> 

            <g id="roda">
                <circle cx="125" cy="525" r="25" stroke="rgb(60, 255, 25)" stroke-width="8" fill="none"/>
                <circle cx="225" cy="525" r="20" stroke="rgb(60, 255, 25)" stroke-width="8" fill="none"/>
            </g>

            <g id="quadro" stroke-width="4" fill="none">
                <polyline points="125,525 160,480 170,530 125,525"/>
                <polyline points="170,530 210,480 160,480"/>
                <polyline points="160,480 160,465"/>
                <polyline points="210,480 225,525"/>
                <polyline points="210,480 210,465"/>
            </g>

            <line id="volante" x1="220" y1="455" x2="200" y2="470" stroke="rgb(255, 235, 0)" stroke-width="7"/>
            <line id="cilim" x1="150" y1="465" x2="170" y2="465" stroke="rgb(255, 235, 0)" stroke-width="10"/>

            <circle id="circulo_pedal" cx="170" cy="525" r="12" fill="#777"/>

            <line id="pata_pedal" x1="170" y1="525" x2="180" y2="545" stroke="black" stroke-width="4">
                <animateTransform attributeName="transform" type="rotate" from="0 170 525" to="360 170 525" dur="2s" repeatCount="indefinite"/>
            </line>    
        </g>

        <g id="criando_raio_da_bike">
            <line id="raio" x1="126" y1="504" x2="126" y2="546" stroke="white" stroke-width="2"/>

            <g id="criar_raio">
                <g id="raio_tras">
                    <animateTransform attributeName="transform" type="rotate" dur="3s" from="0 125 525" to="360 125 525" repeatCount="indefinite"/>
                    <use xlink:href="#raio"/>
                    <use xlink:href="#raio" transform="rotate(60 125 525)"/>
                    <use xlink:href="#raio" transform="rotate(120 125 525)"/>
                </g>

                <g id="raio_frente" transform="translate(100, 0)">
                    <use xlink:href="#raio_tras"/>
                </g>  
            </g>
        </g>

        <g id="ciclista">
            <circle id="cabeça" cx="190" cy="392" r="15" fill="rgb(255, 229, 172)"/>
            <line id="braço1" x1="175" y1="420" x2="217" y2="455" stroke="rgb(255, 229, 172)" stroke-width="8"/>
            <ellipse id="corpo" cx="165" cy="430" rx="15" ry="30" transform="rotate(25 165 430)"/>
            <line id="braço2" x1="175" y1="420" x2="200" y2="467" stroke="rgb(255, 229, 172)" stroke-width="8"/>

            <line id="coxa" x1="155" y1="455" x2="185" y2="490" stroke="black" stroke-width="15">
                <animate attributeName="x2" dur="2s" repeatCount="indefinite" values="180; 180; 190; 190; 180" keyTimes="0; 0.25; 0.5; 0.75; 1"/>
                <animate attributeName="y2" dur="2s" repeatCount="indefinite" values="485; 485; 470; 470; 485" keyTimes="0; 0.25; 0.5; 0.75; 1"/>
            </line>

            <line id="perna" x1="183" y1="485" x2="185" y2="540" stroke="rgb(255, 229, 172)" stroke-width="12">
                <animate attributeName="x1" dur="2s" repeatCount="indefinite" values="180; 180; 185; 185; 180" keyTimes="0; 0.25; 0.5; 0.75; 1"/>
                <animate attributeName="y1" dur="2s" repeatCount="indefinite" values="485; 485; 470; 470; 485" keyTimes="0; 0.25; 0.5; 0.75; 1"/>

                <animate attributeName="x2" dur="2s" repeatCount="indefinite" values="185 ; 150 ; 165 ; 190 ; 185" keyTimes="0; 0.25; 0.5; 0.75; 1"/>
                <animate attributeName="y2" dur="2s" repeatCount="indefinite" values="540 ; 530 ; 505 ; 520 ; 540" keyTimes="0; 0.25; 0.5; 0.75; 1"/>
            </line>
            
            <ellipse id="sapato" cx="185" cy="545" rx="12" ry="5" fill="#ff0c00" transform="translate(8, 0)">
                <animate attributeName="cx" dur="2s" repeatCount="indefinite" values="185 ; 150 ; 165 ; 190 ; 185" keyTimes="0; 0.25; 0.5; 0.75; 1"/>
                <animate attributeName="cy" dur="2s" repeatCount="indefinite" values="540 ; 530 ; 505 ; 520 ; 540" keyTimes="0; 0.25; 0.5; 0.75; 1"/>
            </ellipse>
        </g>

    </defs>

    <g id="chamada_cao_desloca">
        <animateTransform attributeName="transform" type="translate" dur="30s" from="-350" to="1400" repeatCount="indefinite"/>
        <use xlink:href="#cao_andando" transform="translate(0, 90) scale(0.8, 0.8)"/>
    </g>


    <g id="chamada_pessoa_desloca">
        <animateTransform attributeName="transform" type="translate" dur="45s" from="-100" to="1400" repeatCount="indefinite"/>
        <use xlink:href="#pessoa_desloca" fill="#0e9996"/>

        <use xlink:href="#pessoa_desloca" fill="orange" transform="translate(-130, 0)"/>
    </g>


    <g id="chamada_bike2">
        <animateTransform attributeName="transform" type="translate" dur="45s" from="300" to="-1400" repeatCount="indefinite"/>
        <use xlink:href="#criar_raio" transform="translate(1400, 20) scale(-0.8, 0.8) rotate(2)"/>

        <use xlink:href="#bike" stroke="blue" transform="translate(1400, 20) scale(-0.8, 0.8) rotate(2)"/>

        <use xlink:href="#ciclista" transform="translate(1400, 20) scale(-0.8, 0.8) rotate(2)" fill="#ff3c00"/>
    </g>

    <g id="chamada_bike1">
        <animateTransform attributeName="transform" type="translate" dur="20s" from="-300" to="1400" repeatCount="indefinite"/>-
        <use xlink:href="#criar_raio"/>

        <use xlink:href="#bike" stroke="rgb(180, 12, 120)"/>  

        <use xlink:href="#ciclista" fill="#36d1e4"/>
    </g>

</svg>